<svg id="SvgjsSvg1068" width="650" height="140" xmlns="http://www.w3.org/2000/svg" version="1.1" xmlns:xlink="http://www.w3.org/1999/xlink" xmlns:svgjs="http://svgjs.com/svgjs"><defs id="SvgjsDefs1069"></defs><g id="SvgjsG1070" transform="translate(25,25)"><path id="SvgjsPath1071" d="M 0 4Q 0 0 4 0L 146 0Q 150 0 150 4L 150 26Q 150 30 146 30L 4 30Q 0 30 0 26Z" stroke="rgba(50,50,50,1)" stroke-width="2" fill-opacity="1" fill="#00f5d4"></path><g id="SvgjsG1072"><text id="SvgjsText1073" font-family="微软雅黑" text-anchor="middle" font-size="13px" width="130px" fill="#323232" font-weight="400" align="middle" lineHeight="125%" anchor="middle" family="微软雅黑" size="13px" weight="400" font-style="" opacity="1" y="5.375" transform="rotate(0)"><tspan id="SvgjsTspan1074" dy="16" x="75"><tspan id="SvgjsTspan1075" style="text-decoration:;">吃饭0.5小时</tspan></tspan></text></g></g><g id="SvgjsG1076" transform="translate(25,85)"><path id="SvgjsPath1077" d="M 0 4Q 0 0 4 0L 596 0Q 600 0 600 4L 600 26Q 600 30 596 30L 4 30Q 0 30 0 26Z" stroke="rgba(50,50,50,1)" stroke-width="2" fill-opacity="1" fill="#fee540"></path><g id="SvgjsG1078"><text id="SvgjsText1079" font-family="微软雅黑" text-anchor="middle" font-size="13px" width="580px" fill="#323232" font-weight="400" align="middle" lineHeight="125%" anchor="middle" family="微软雅黑" size="13px" weight="400" font-style="" opacity="1" y="5.375" transform="rotate(0)"><tspan id="SvgjsTspan1080" dy="16" x="300"><tspan id="SvgjsTspan1081" style="text-decoration:;">看剧2小时</tspan></tspan></text></g></g><g id="SvgjsG1082" transform="translate(177,25)"><path id="SvgjsPath1083" d="M 0 4Q 0 0 4 0L 444 0Q 448 0 448 4L 448 26Q 448 30 444 30L 4 30Q 0 30 0 26Z" stroke-dasharray="3,4" stroke="rgba(50,50,50,1)" stroke-width="2" fill-opacity="1" fill="#d8e2dc"></path><g id="SvgjsG1084"><text id="SvgjsText1085" font-family="微软雅黑" text-anchor="middle" font-size="13px" width="428px" fill="#323232" font-weight="400" align="middle" lineHeight="125%" anchor="middle" family="微软雅黑" size="13px" weight="400" font-style="" opacity="1" y="5.375" transform="rotate(0)"><tspan id="SvgjsTspan1086" dy="16" x="224"><tspan id="SvgjsTspan1087" style="text-decoration:;">1.5小时</tspan></tspan></text></g></g></svg>